<?xml version="1.0" encoding="UTF-8" standalone="no"?>
<!-- Created with Inkscape (http://www.inkscape.org/) -->

<svg
   width="5.6217308cm"
   height="5.1612873cm"
   viewBox="0 0 56.217308 51.612873"
   version="1.1"
   id="svg1"
   xml:space="preserve"
   sodipodi:docname="antigravity icon.svg"
   inkscape:version="1.4.2 (f4327f4, 2025-05-13)"
   xmlns:inkscape="http://www.inkscape.org/namespaces/inkscape"
   xmlns:sodipodi="http://sodipodi.sourceforge.net/DTD/sodipodi-0.dtd"
   xmlns:xlink="http://www.w3.org/1999/xlink"
   xmlns="http://www.w3.org/2000/svg"
   xmlns:svg="http://www.w3.org/2000/svg"><sodipodi:namedview
     id="namedview1"
     pagecolor="#505050"
     bordercolor="#eeeeee"
     borderopacity="1"
     inkscape:showpageshadow="0"
     inkscape:pageopacity="0"
     inkscape:pagecheckerboard="0"
     inkscape:deskcolor="#505050"
     inkscape:document-units="cm"
     inkscape:zoom="1.4010026"
     inkscape:cx="-34.261178"
     inkscape:cy="150.24954"
     inkscape:window-width="1920"
     inkscape:window-height="991"
     inkscape:window-x="-9"
     inkscape:window-y="-9"
     inkscape:window-maximized="1"
     inkscape:current-layer="layer1" /><defs
     id="defs1"><color-profile
       name="sRGB-IEC61966-2.1"
       xlink:href="file:///C:/WINDOWS/system32/spool/drivers/color/sRGB%20Color%20Space%20Profile.icm"
       id="color-profile2" /><rect
       x="-7062.229"
       y="4224.9629"
       width="2934.4932"
       height="662.9126"
       id="rect43" /><rect
       x="-3685.7942"
       y="1537.9573"
       width="1608.6678"
       height="265.16504"
       id="rect41" /><style
       id="style1">.a{fill:#157cff;}.b{fill:#3a52dd;}.c{fill:#3c54df;}</style></defs><g
     id="layer1"
     transform="translate(770.93148,-1143.0765)"><g
       id="g44"
       transform="matrix(0.24011678,0,0,0.24011678,-816.66686,1120.8743)"><path
         d="m 332.03409,101 c 0.89333,0.64582 0.89333,0.64582 1.80469,1.30469 12.71811,10.00491 19.61069,27.19169 24.89453,42.0625 1.04069,2.90642 2.15572,5.73182 3.36328,8.57031 1.64698,4.087 2.93205,8.24811 4.15625,12.47656 0.21428,0.73417 0.42855,1.46833 0.64931,2.22475 1.76823,6.07246 3.51028,12.15247 5.25304,18.23228 0.2701,0.94164 0.54021,1.88327 0.81849,2.85344 0.27324,0.95264 0.54648,1.90529 0.82799,2.8868 0.41295,1.43968 0.41295,1.43968 0.83423,2.90844 0.55652,1.94303 1.11186,3.88639 1.66602,5.83008 7.1391,25.06121 7.1391,25.06121 16.54467,49.33765 0.42741,0.96913 0.85481,1.93827 1.29517,2.93677 5.61459,12.47858 11.90148,22.78044 21.36108,32.65698 4.21942,4.53197 8.05815,8.88015 9.09375,15.09375 -0.6219,2.90222 -1.19198,3.8927 -3.5625,5.625 -3.965,1.9825 -8.83788,1.65658 -13.01953,0.38672 -6.01244,-2.77969 -10.96719,-7.13118 -15.98047,-11.38672 -0.79277,-0.63422 -1.58554,-1.26844 -2.40234,-1.92188 C 374.09753,280.08678 364.25746,261.67709 354.37784,244.33984 345.97625,229.66993 336.79973,215.69052 320.03409,210 c -10.5864,-2.59895 -22.70678,-1.70431 -32.46875,3.25391 -14.38613,9.0406 -22.36379,23.77217 -30.46875,38.18359 -8.00371,14.20183 -16.68217,26.87654 -28.0625,38.5625 -0.57879,0.65227 -1.15758,1.30453 -1.75391,1.97656 -5.78927,6.35515 -16.10775,14.54273 -24.83984,15.22656 -0.95906,0.0155 -1.91812,0.0309 -2.90625,0.0469 -0.95906,0.0258 -1.91812,0.0516 -2.90625,0.0781 C 194.03409,307 194.03409,307 192.2255,305.64844 191.03409,304 191.03409,304 190.47159,301.375 c 1.10809,-6.64857 5.49868,-11.49927 10.3125,-16 23.49522,-22.8252 32.63626,-60.82848 40.46631,-91.36328 21.0616,-80.93951 21.0616,-80.93951 47.88526,-97.29297 13.67333,-7.390988 30.72095,-4.635321 42.89843,4.28125 z"
         fill="#5f89c0"
         id="path2-8"
         style="fill:#6c33af;fill-opacity:1" /></g></g></svg>
