<?xml version="1.0" encoding="UTF-8" standalone="no"?>
<svg
   width="777"
   height="753.91779"
   viewBox="0 0 400 200"
   version="1.1"
   id="svg7"
   sodipodi:docname="config-canvas.svg"
   inkscape:version="1.4.2 (f4327f4, 2025-05-13)"
   xmlns:inkscape="http://www.inkscape.org/namespaces/inkscape"
   xmlns:sodipodi="http://sodipodi.sourceforge.net/DTD/sodipodi-0.dtd"
   xmlns="http://www.w3.org/2000/svg"
   xmlns:svg="http://www.w3.org/2000/svg">
  <sodipodi:namedview
     id="namedview7"
     pagecolor="#505050"
     bordercolor="#eeeeee"
     borderopacity="1"
     inkscape:showpageshadow="0"
     inkscape:pageopacity="0"
     inkscape:pagecheckerboard="0"
     inkscape:deskcolor="#505050"
     inkscape:zoom="1.0253107"
     inkscape:cx="388.66266"
     inkscape:cy="384.76141"
     inkscape:window-width="1920"
     inkscape:window-height="991"
     inkscape:window-x="-9"
     inkscape:window-y="-9"
     inkscape:window-maximized="1"
     inkscape:current-layer="g97" />
  <!-- Define gradient -->
  <defs
     id="defs5">
    <!-- Purple to blue gradient -->
    <linearGradient
       id="codeBlockGradient"
       x1="0%"
       y1="0%"
       x2="100%"
       y2="0%">
      <stop
         offset="0%"
         style="stop-color:#A855F7;stop-opacity:1"
         id="stop1" />
      <stop
         offset="25%"
         style="stop-color:#8B5CF6;stop-opacity:1"
         id="stop2" />
      <stop
         offset="50%"
         style="stop-color:#7C3AED;stop-opacity:1"
         id="stop3" />
      <stop
         offset="75%"
         style="stop-color:#6366F1;stop-opacity:1"
         id="stop4" />
      <stop
         offset="100%"
         style="stop-color:#3B82F6;stop-opacity:1"
         id="stop5" />
    </linearGradient>
  </defs>
  <!-- Main rounded rectangle with gradient background -->
  <!-- Code symbol elements - centered -->
  <!-- Left curly brace { -->
  <!-- Forward slash / -->
  <!-- Right curly brace } -->
  <g
     id="g97"
     transform="matrix(4.1355904,0,0,4.1355904,-7083.9465,-8247.611)">
    <g
       id="g96"
       transform="matrix(0.46859292,0.81162672,-0.81162672,0.46859292,2488.3727,47.76488)"
       style="fill:#d9d9d9;fill-opacity:1;stroke:none">
      <path
         d="m 1397.9623,1749.7928 h -4.593 q -5.4808,0 -8.9102,-3.0619 -3.3987,-3.0313 -3.3987,-8.7878 v -4.5623 q 0,-5.1746 -2.5415,-8.0835 -2.5414,-2.9394 -7.7773,-2.9394 h -1.5616 v -4.7767 h 1.5616 q 5.2359,0 7.7773,-2.9088 2.5415,-2.9395 2.5415,-8.1141 v -4.5623 q 0,-5.7565 3.3987,-8.7878 3.4294,-3.0619 8.9102,-3.0619 h 4.593 v 4.2255 h -3.4907 q -4.1642,0 -6.0626,1.929 -1.8678,1.929 -1.8678,6.2157 v 5.3584 q 0,4.2561 -2.3577,7.1649 -2.3577,2.8783 -6.5525,4.5623 v 0.7349 q 4.1948,1.6841 6.5525,4.5929 2.3577,2.8782 2.3577,7.1343 v 5.3584 q 0,4.2867 1.8678,6.2157 1.8984,1.9291 6.0626,1.9291 h 3.4907 z m 62.2798,-27.4349 h -1.5616 q -5.2359,0 -7.7773,2.9394 -2.5414,2.9089 -2.5414,8.0835 v 4.5623 q 0,5.7565 -3.4294,8.7878 -3.3988,3.0619 -8.8796,3.0619 h -4.5929 v -4.2254 h 3.4906 q 4.1642,0 6.032,-1.9291 1.8984,-1.929 1.8984,-6.2157 v -5.3584 q 0,-4.2561 2.3577,-7.1343 2.3577,-2.9088 6.5525,-4.5929 v -0.7349 q -4.1948,-1.684 -6.5525,-4.5623 -2.3577,-2.9088 -2.3577,-7.1649 v -5.3584 q 0,-4.2867 -1.8984,-6.2157 -1.8678,-1.929 -6.032,-1.929 h -3.4906 v -4.2255 h 4.5929 q 5.4808,0 8.8796,3.0619 3.4294,3.0313 3.4294,8.7878 v 4.5623 q 0,5.1746 2.5414,8.1141 2.5414,2.9088 7.7773,2.9088 h 1.5616 z"
         id="text1-7"
         style="font-size:62.7085px;-inkscape-font-specification:'sans-serif, Normal';text-align:center;text-anchor:middle;fill:#d9d9d9;fill-opacity:1;stroke:none;stroke-linecap:round;stroke-linejoin:round;paint-order:markers stroke fill"
         aria-label="{ }"
         transform="matrix(0.55769634,-0.96595836,0.96595836,0.55769634,-1017.2292,2130.6138)" />
      <path
         d="m 1432.5854,1698.7943 3.4108,5.9077 c 0.4319,0.748 0.1771,1.698 -0.571,2.1299 l -3.3596,1.9396 c -0.7481,0.432 -1.6982,0.1777 -2.13,-0.5703 l -3.4109,-5.9078 a 8.1501048,8.1501048 0 0 0 -0.3475,8.7002 8.1501048,8.1501048 0 0 0 11.1333,2.9831 8.1501048,8.1501048 0 0 0 2.9832,-11.1332 8.1501048,8.1501048 0 0 0 -7.7083,-4.0492 z"
         style="fill:#d9d9d9;fill-opacity:1;stroke:none;stroke-width:1.64285;stroke-linecap:round;stroke-linejoin:round;paint-order:markers stroke fill"
         id="path98"
         transform="translate(-7.0451644,2.7602776)" />
      <rect
         style="fill:#d9d9d9;fill-opacity:1;stroke:none;stroke-width:1.05612;stroke-linecap:round;stroke-linejoin:round;stroke-dasharray:none;stroke-opacity:1;paint-order:markers stroke fill"
         id="rect98"
         width="7.4224167"
         height="36.821007"
         x="384.04794"
         y="2196.0476"
         ry="3.7112083"
         transform="rotate(-30,1.6281661,14.526594)" />
    </g>
  </g>
</svg>
