<?xml version="1.0" encoding="UTF-8" standalone="no"?>
<!-- Created with Inkscape (http://www.inkscape.org/) -->

<svg
   width="24.127016cm"
   height="29.60026cm"
   viewBox="0 0 241.27016 296.0026"
   version="1.1"
   id="svg1"
   xml:space="preserve"
   sodipodi:docname="eks&amp;gke.svg"
   inkscape:version="1.4.2 (f4327f4, 2025-05-13)"
   xmlns:inkscape="http://www.inkscape.org/namespaces/inkscape"
   xmlns:sodipodi="http://sodipodi.sourceforge.net/DTD/sodipodi-0.dtd"
   xmlns:xlink="http://www.w3.org/1999/xlink"
   xmlns="http://www.w3.org/2000/svg"
   xmlns:svg="http://www.w3.org/2000/svg"><sodipodi:namedview
     id="namedview1"
     pagecolor="#505050"
     bordercolor="#eeeeee"
     borderopacity="1"
     inkscape:showpageshadow="0"
     inkscape:pageopacity="0"
     inkscape:pagecheckerboard="0"
     inkscape:deskcolor="#505050"
     inkscape:document-units="cm"
     inkscape:zoom="0.12214381"
     inkscape:cx="573.09494"
     inkscape:cy="-143.27373"
     inkscape:window-width="1920"
     inkscape:window-height="991"
     inkscape:window-x="-9"
     inkscape:window-y="-9"
     inkscape:window-maximized="1"
     inkscape:current-layer="layer1" /><defs
     id="defs1"><linearGradient
       id="linearGradient126"><stop
         style="stop-color:#9443ee;stop-opacity:1;"
         offset="0"
         id="stop125" /><stop
         style="stop-color:#3a1d61;stop-opacity:1;"
         offset="1"
         id="stop126" /></linearGradient><color-profile
       name="sRGB-IEC61966-2.1"
       xlink:href="file:///C:/WINDOWS/system32/spool/drivers/color/sRGB%20Color%20Space%20Profile.icm"
       id="color-profile2" /><rect
       x="-6018.7505"
       y="6568.7505"
       width="3006.25"
       height="225.00002"
       id="rect119" /><linearGradient
       id="linearGradient109"><stop
         style="stop-color:#bdbdbd;stop-opacity:1;"
         offset="0.0310559"
         id="stop112" /><stop
         style="stop-color:#ffffff;stop-opacity:1;"
         offset="0.09316771"
         id="stop109" /><stop
         style="stop-color:#afafaf;stop-opacity:1;"
         offset="0.1552795"
         id="stop113" /><stop
         style="stop-color:#aaaaaa;stop-opacity:1;"
         offset="1"
         id="stop111" /></linearGradient><rect
       x="-7237.5005"
       y="8600"
       width="3687.5"
       height="1281.25"
       id="rect105" /><linearGradient
       xlink:href="#linearGradient109"
       id="linearGradient110"
       x1="97.769173"
       y1="535.86487"
       x2="1302.8755"
       y2="535.86487"
       gradientUnits="userSpaceOnUse"
       gradientTransform="matrix(-0.27296339,0,0,0.16013227,-1445.1324,2029.9615)" /><linearGradient
       xlink:href="#linearGradient126"
       id="linearGradient117"
       x1="-2204.3098"
       y1="1950.4753"
       x2="-1847.1223"
       y2="1950.4753"
       gradientUnits="userSpaceOnUse"
       gradientTransform="translate(281.1198,18.190105)" /><style
       id="style1">.a{fill:#157cff;}.b{fill:#3a52dd;}.c{fill:#3c54df;}</style><path
       id="2"
       d="M 27.791,115.22 1.541,69.75 c -2.054,-3.558 -2.054,-7.941 0,-11.499 l 26.25,-45.47 c 2.054,-3.558 5.85,-5.75 9.959,-5.75 h 52.5 c 4.108,0 7.904,2.192 9.959,5.75 l 26.25,45.47 c 2.054,3.558 2.054,7.941 0,11.499 l -26.25,45.47 c -2.054,3.558 -5.85,5.749 -9.959,5.749 h -52.5 c -4.108,0 -7.904,-2.192 -9.958,-5.749" /><clipPath
       id="1"><use
         xlink:href="#2"
         id="use1" /></clipPath><linearGradient
       id="0"
       gradientUnits="userSpaceOnUse"
       y1="7.0300002"
       x2="0"
       y2="120.79"><stop
         stop-color="#4387fd"
         id="stop1-9" /><stop
         offset="1"
         stop-color="#4683ea"
         id="stop2-8" /></linearGradient></defs><g
     id="layer1"
     transform="translate(1843.734,-1847.1226)"><g
       id="g130"><g
         id="g119"
         transform="matrix(0.67547171,0,0,0.67547171,-544.67345,665.34597)"><rect
           style="fill:url(#linearGradient117);stroke:none;stroke-width:5.80001;stroke-linecap:round;stroke-linejoin:round;stroke-opacity:1;paint-order:markers fill stroke"
           id="rect116"
           width="357.1875"
           height="438.21619"
           x="-1923.1901"
           y="1749.5574"
           ry="39.645714" /><g
           id="g117"
           transform="translate(-137.83726,7.4414066)"><path
             d="m -1785.1537,1804.76 c 1.3036,-0.2192 2.6438,-0.3334 4.0116,-0.3334 h 230.602 c 13.2044,0 23.8346,10.6303 23.8346,23.8346 v 278.5063 h -11.0004 v -279.2357 c 0,-8.1804 -6.5857,-14.766 -14.766,-14.766 h -229.5586 c -1.0722,0 -2.1171,0.1133 -3.1232,0.3283 z"
             style="fill:#161616;stroke-width:1.82889;stroke-linecap:round;stroke-linejoin:round;paint-order:markers fill stroke"
             id="path115" /><path
             d="m -1785.1537,1813.0941 c 1.0061,-0.215 2.051,-0.3283 3.1232,-0.3283 h 229.5586 c 8.1803,0 14.766,6.5856 14.766,14.766 v 279.2357 h -247.4478 z"
             style="fill:#ffffff;stroke-width:1.71717;stroke-linecap:round;stroke-linejoin:round;paint-order:markers fill stroke"
             id="path114" /><path
             d="m -1483.6593,2106.7675 c 1.1693,0 2.1105,0.9413 2.1105,2.1106 v 13.7853 c 0,1.1693 -0.9412,2.1107 -2.1105,2.1107 h -50.6972 -250.7972 v -3.0522 -14.9544 h 247.4478 11.0004 z"
             style="fill:url(#linearGradient110);stroke-width:1.2126;stroke-linecap:round;stroke-linejoin:round;paint-order:markers fill stroke"
             id="path116" /><rect
             style="fill:#000000;fill-opacity:1;stroke:none;stroke-width:9.67765;stroke-linecap:round;stroke-linejoin:round;stroke-opacity:1;paint-order:markers fill stroke"
             id="rect121"
             width="20.340342"
             height="5.6260514"
             x="-1784.8705"
             y="1817.5458"
             ry="2.8130257" /></g></g><g
         id="g120"
         transform="matrix(0.11113526,0,0,0.11113526,-1791.0493,1920.8857)"><path
           class="a"
           d="m 238.464,480.276 c 0,-47.658 0.088,-95.317 -0.116,-142.974 -0.025,-5.636 2.074,-8.918 6.735,-11.594 q 52.595,-30.2 105.066,-60.61 38.024,-21.955 76.047,-43.909 c 14.972,-8.652 29.86,-17.455 44.964,-25.868 2.473,-1.378 6.81,-2.456 8.6,-1.224 2.187,1.5 3.549,5.572 3.61,8.565 0.3,14.99 0.03,29.99 0.028,44.987 0,22.829 -0.125,45.66 0.186,68.485 0.095,6.988 -2.366,11.136 -8.587,14.66 -37.2,21.074 -74.131,42.61 -111.208,63.9 -4.179,2.4 -6.085,5.427 -6.072,10.4 q 0.2,75.237 0,150.474 c -0.013,4.959 1.74,7.911 6.013,10.364 q 64.707,37.146 129.227,74.62 c 4.788,2.78 8.716,3.13 13.8,0.148 q 52.536,-30.792 105.414,-61 c 15.965,-9.161 11.3,-8.648 25.754,-0.383 31.489,18 62.741,36.414 94.27,54.341 8.217,4.672 6.119,10.94 -0.174,14.546 q -97.247,55.722 -194.234,111.893 c -10.8,6.232 -21.671,12.352 -32.364,18.766 -3.731,2.237 -6.873,2.335 -10.656,0.139 -27.054,-15.7 -54.2,-31.247 -81.3,-46.874 q -76.085,-43.881 -152.145,-87.8 c -5.618,-3.242 -11.159,-6.626 -16.86,-9.714 -4.426,-2.4 -6.186,-5.7 -6.169,-10.862 0.161,-47.825 0.095,-95.65 0.095,-143.475 z"
           transform="translate(-238.301,-193.233)"
           id="path1-73" /><path
           class="b"
           d="m 761.058,467.509 q 0,63.477 0,126.955 c 0,1.832 0.061,3.671 -0.072,5.5 -0.434,5.947 -4.857,8.5 -10.108,5.564 q -20.49,-11.451 -40.809,-23.2 c -20.327,-11.721 -40.524,-23.67 -60.946,-35.22 -4.938,-2.792 -7.014,-6.012 -6.982,-11.842 0.23,-43.15 0.051,-86.3 0.213,-129.453 0.02,-5.259 -1.543,-8.627 -6.225,-11.3 -27.611,-15.757 -55.085,-31.755 -82.609,-47.665 -10.66,-6.162 -21.3,-12.357 -32.016,-18.424 -3.279,-1.857 -4.529,-4.407 -4.522,-8.144 0.071,-39.652 0.007,-79.3 0.052,-118.957 0.009,-7.56 4.615,-10.143 11.162,-6.363 q 36.759,21.219 73.478,42.51 75.862,43.87 151.8,87.609 c 5.677,3.252 7.775,7 7.738,13.482 -0.249,42.983 -0.129,85.968 -0.129,128.953 z"
           transform="translate(-238.301,-193.233)"
           id="path2-35" /><path
           class="c"
           d="m 469.7,464.389 c 1.431,-1.258 2.95,-2.431 4.279,-3.788 20.378,-20.808 40.685,-41.685 61.175,-62.382 a 11.019,11.019 0 0 1 6.775,-2.938 c 8.455,-0.347 16.933,-0.137 26.955,-0.137 -5.562,5.813 -10.15,10.668 -14.8,15.46 q -28.7,29.56 -57.468,59.043 c -2.668,2.721 -2.783,4.52 -0.151,7.443 q 36.753,40.82 73.244,81.875 c 1.038,1.162 1.948,2.439 3.683,4.63 -10.182,0 -19.1,0.174 -28,-0.16 -1.6,-0.06 -3.368,-1.993 -4.651,-3.426 q -33.488,-37.371 -66.864,-74.84 c -1.292,-1.448 -2.63,-2.855 -4.981,-5.4 a 70.564,70.564 0 0 0 -0.866,7.219 c -0.037,23.488 -0.137,46.977 0.11,70.463 0.052,5.016 -1.339,6.962 -6.467,6.374 a 51.192,51.192 0 0 0 -10.978,-0.008 c -5.008,0.513 -6.579,-1.205 -6.539,-6.36 0.234,-29.983 0.112,-59.969 0.111,-89.954 0,-22.156 0.12,-44.313 -0.1,-66.466 -0.045,-4.6 1.307,-6.347 5.929,-5.954 a 62.633,62.633 0 0 0 11.481,0.006 c 5,-0.5 6.623,1.207 6.543,6.341 -0.292,18.653 -0.138,37.313 -0.118,55.97 0,2.1 0.224,4.191 0.344,6.286 z"
           transform="translate(-238.301,-193.233)"
           id="path3-9" /></g><g
         id="g121"
         transform="matrix(0.49737653,0,0,0.49737653,-1794.106,2008.7337)"><path
           d="M 27.791,115.22 1.541,69.75 c -2.054,-3.558 -2.054,-7.941 0,-11.499 l 26.25,-45.47 c 2.054,-3.558 5.85,-5.75 9.959,-5.75 h 52.5 c 4.108,0 7.904,2.192 9.959,5.75 l 26.25,45.47 c 2.054,3.558 2.054,7.941 0,11.499 l -26.25,45.47 c -2.054,3.558 -5.85,5.749 -9.959,5.749 h -52.5 c -4.108,0 -7.904,-2.192 -9.958,-5.749"
           fill="url(#0)"
           id="path2-1"
           style="fill:url(#0)" /><path
           opacity="0.07"
           clip-path="url(#1)"
           d="M 124.05,82.86 89.63,48.44 64,37 39.5,50.31 38.473,79.65 81.02,122.19 97.67,122.04 Z"
           id="path3-8" /><path
           d="M 89.03,47.993 65.354,34.323 c -0.835,-0.482 -1.864,-0.482 -2.699,0 l -23.676,13.67 c -0.835,0.482 -1.349,1.373 -1.349,2.337 v 27.339 c 0,0.964 0.514,1.855 1.349,2.337 l 23.676,13.67 c 0.835,0.482 1.864,0.482 2.699,0 L 89.03,80.006 c 0.835,-0.482 1.349,-1.373 1.349,-2.337 V 50.33 c 0,-0.964 -0.514,-1.855 -1.349,-2.337 m -3.248,27.06 -8.26,-4.769 V 57.721 l -12.198,7.04 v 14.09 l 10.879,-6.281 8.26,4.769 -20.459,11.812 -20.459,-11.812 8.26,-4.769 10.88,6.281 v -14.09 l -12.198,-7.04 v 12.563 l -8.26,4.769 V 51.429 L 62.686,39.617 v 9.538 l -10.88,6.281 12.198,7.04 12.198,-7.04 -10.879,-6.281 v -9.538 l 20.459,11.812 v 23.624"
           fill="#ffffff"
           id="path4-2" /></g></g></g></svg>
