<?xml version="1.0" encoding="UTF-8" standalone="no"?>
<!-- created by svgstack.com | Attribution is required. -->

<svg
   width="100"
   height="100"
   viewBox="0 0 100 100"
   fill="none"
   version="1.1"
   id="svg2"
   sodipodi:docname="github-logo-svg_svgstack_com_28391755077741.svg"
   inkscape:version="1.4.2 (f4327f4, 2025-05-13)"
   xmlns:inkscape="http://www.inkscape.org/namespaces/inkscape"
   xmlns:sodipodi="http://sodipodi.sourceforge.net/DTD/sodipodi-0.dtd"
   xmlns="http://www.w3.org/2000/svg"
   xmlns:svg="http://www.w3.org/2000/svg">
  <defs
     id="defs2" />
  <sodipodi:namedview
     id="namedview2"
     pagecolor="#505050"
     bordercolor="#eeeeee"
     borderopacity="1"
     inkscape:showpageshadow="0"
     inkscape:pageopacity="0"
     inkscape:pagecheckerboard="0"
     inkscape:deskcolor="#505050"
     inkscape:zoom="7.73"
     inkscape:cx="50"
     inkscape:cy="49.935317"
     inkscape:window-width="1920"
     inkscape:window-height="991"
     inkscape:window-x="-9"
     inkscape:window-y="-9"
     inkscape:window-maximized="1"
     inkscape:current-layer="svg2" />
  <path
     d="M50 1.00049C22.3892 1.00049 -0.000244141 23.386 -0.000244141 51.0007C-0.000244141 73.0924 14.3263 91.8345 34.1931 98.4461C36.6918 98.9088 37.6094 97.3614 37.6094 96.0406C37.6094 94.8485 37.5627 90.9095 37.5416 86.7316C23.6311 89.7562 20.6959 80.8322 20.6959 80.8322C18.4215 75.0528 15.1443 73.5163 15.1443 73.5163C10.608 70.4129 15.4863 70.4765 15.4863 70.4765C20.5073 70.8294 23.1511 75.6292 23.1511 75.6292C27.6105 83.2733 34.8479 81.0631 37.7012 79.7859C38.1498 76.5539 39.4458 74.3485 40.8756 73.0999C29.7701 71.8352 18.0952 67.5479 18.0952 48.3894C18.0952 42.9308 20.0485 38.4701 23.2472 34.9687C22.728 33.7091 21.0167 28.6238 23.7315 21.7366C23.7315 21.7366 27.9301 20.3927 37.4851 26.8619C41.4732 25.7537 45.7507 25.1985 50 25.1796C54.2492 25.1985 58.5298 25.7537 62.5258 26.8619C72.0694 20.3927 76.2622 21.7366 76.2622 21.7366C78.9836 28.6238 77.2715 33.7091 76.7523 34.9687C79.9581 38.4701 81.898 42.9304 81.898 48.3894C81.898 67.5934 70.2012 71.8223 59.0675 73.0599C60.8607 74.6116 62.4587 77.6546 62.4587 82.3192C62.4587 89.0091 62.4007 94.3936 62.4007 96.0406C62.4007 97.3712 63.3007 98.9304 65.8355 98.4394C85.6912 91.8204 99.9998 73.085 99.9998 51.0007C99.9998 23.386 77.6135 1.00049 50 1.00049Z"
     fill="#161614"
     id="path1"
     style="fill:#f3f3f3;fill-opacity:1" />
</svg>
