<?xml version="1.0" encoding="UTF-8" standalone="no"?>
<!-- Created with Inkscape (http://www.inkscape.org/) -->

<svg
   width="164.70312cm"
   height="197.08577cm"
   viewBox="0 0 1647.0312 1970.8577"
   version="1.1"
   id="svg1"
   xml:space="preserve"
   sodipodi:docname="intro background.svg"
   inkscape:version="1.4.2 (f4327f4, 2025-05-13)"
   xmlns:inkscape="http://www.inkscape.org/namespaces/inkscape"
   xmlns:sodipodi="http://sodipodi.sourceforge.net/DTD/sodipodi-0.dtd"
   xmlns:xlink="http://www.w3.org/1999/xlink"
   xmlns="http://www.w3.org/2000/svg"
   xmlns:svg="http://www.w3.org/2000/svg"><sodipodi:namedview
     id="namedview1"
     pagecolor="#505050"
     bordercolor="#eeeeee"
     borderopacity="1"
     inkscape:showpageshadow="0"
     inkscape:pageopacity="0"
     inkscape:pagecheckerboard="0"
     inkscape:deskcolor="#505050"
     inkscape:document-units="cm"
     inkscape:zoom="0.10377356"
     inkscape:cx="3107.7281"
     inkscape:cy="3724.4555"
     inkscape:window-width="1920"
     inkscape:window-height="991"
     inkscape:window-x="-9"
     inkscape:window-y="-9"
     inkscape:window-maximized="1"
     inkscape:current-layer="g195" /><defs
     id="defs1"><linearGradient
       id="linearGradient128"><stop
         style="stop-color:#540ea3;stop-opacity:1;"
         offset="0"
         id="stop127" /><stop
         style="stop-color:#0c0614;stop-opacity:1;"
         offset="1"
         id="stop128" /></linearGradient><linearGradient
       id="linearGradient126"><stop
         style="stop-color:#9443ee;stop-opacity:1;"
         offset="0"
         id="stop125" /><stop
         style="stop-color:#3a1d61;stop-opacity:1;"
         offset="1"
         id="stop126" /></linearGradient><linearGradient
       id="linearGradient124"><stop
         style="stop-color:#9443ee;stop-opacity:1;"
         offset="0.25155279"
         id="stop123" /><stop
         style="stop-color:#6c33af;stop-opacity:0;"
         offset="1"
         id="stop124" /></linearGradient><color-profile
       name="sRGB-IEC61966-2.1"
       xlink:href="file:///C:/WINDOWS/system32/spool/drivers/color/sRGB%20Color%20Space%20Profile.icm"
       id="color-profile2" /><rect
       x="-5693.75"
       y="3456.25"
       width="1037.5"
       height="881.25"
       id="rect36" /><rect
       x="-5918.75"
       y="2131.25"
       width="1050"
       height="743.75"
       id="rect35" /><rect
       x="-5837.5"
       y="2531.25"
       width="1050"
       height="1206.25"
       id="rect33" /><rect
       x="-7353.9106"
       y="1997.5767"
       width="1102.2655"
       height="487.14508"
       id="rect31" /><rect
       x="-7406.9434"
       y="1599.8291"
       width="3477.8845"
       height="274.89221"
       id="rect30" /><rect
       x="-7521.8486"
       y="768.97864"
       width="5100.0078"
       height="433.10287"
       id="rect18" /><linearGradient
       id="linearGradient25"><stop
         style="stop-color:#21248a;stop-opacity:1;"
         offset="0"
         id="stop25" /><stop
         style="stop-color:#da66d2;stop-opacity:1;"
         offset="1"
         id="stop26" /></linearGradient><linearGradient
       id="linearGradient6-6"><stop
         style="stop-color:#000000;stop-opacity:1;"
         offset="0"
         id="stop6-1" /><stop
         style="stop-color:#1a1a1a;stop-opacity:0;"
         offset="1"
         id="stop7-8" /></linearGradient><linearGradient
       xlink:href="#linearGradient33"
       id="linearGradient48"
       gradientUnits="userSpaceOnUse"
       x1="96.479095"
       y1="148.69229"
       x2="238.6393"
       y2="148.69229" /><linearGradient
       id="linearGradient33"><stop
         style="stop-color:#b057c1;stop-opacity:1;"
         offset="0.2535497"
         id="stop34" /><stop
         style="stop-color:#21248a;stop-opacity:1;"
         offset="1"
         id="stop35" /></linearGradient><linearGradient
       xlink:href="#linearGradient25"
       id="linearGradient49"
       gradientUnits="userSpaceOnUse"
       x1="44.809975"
       y1="138.90785"
       x2="104.29602"
       y2="160.55901" /><linearGradient
       xlink:href="#linearGradient6-6"
       id="linearGradient51"
       gradientUnits="userSpaceOnUse"
       gradientTransform="translate(-159.87622,238.3354)"
       x1="257.88525"
       y1="-119.01272"
       x2="257.21884"
       y2="-125.71626" /><linearGradient
       xlink:href="#linearGradient6-6"
       id="linearGradient52"
       gradientUnits="userSpaceOnUse"
       gradientTransform="translate(-159.8834,238.25202)"
       x1="231.56932"
       y1="-66.523209"
       x2="245.94902"
       y2="-94.240067" /><linearGradient
       xlink:href="#linearGradient33"
       id="linearGradient23"
       gradientUnits="userSpaceOnUse"
       x1="96.479095"
       y1="148.69229"
       x2="238.6393"
       y2="148.69229" /><linearGradient
       id="linearGradient2"><stop
         style="stop-color:#000000;stop-opacity:1;"
         offset="0"
         id="stop2" /><stop
         style="stop-color:#1a1a1a;stop-opacity:0;"
         offset="0.875817"
         id="stop3" /></linearGradient><rect
       x="-15150"
       y="-4393.75"
       width="1943.75"
       height="1231.25"
       id="rect195" /><rect
       x="-15062.5"
       y="-2825"
       width="2543.75"
       height="681.25"
       id="rect196" /><linearGradient
       xlink:href="#linearGradient124"
       id="linearGradient196"
       gradientUnits="userSpaceOnUse"
       x1="-1849.5928"
       y1="-4810.0059"
       x2="-1849.5928"
       y2="-2825.6296" /><radialGradient
       xlink:href="#linearGradient126"
       id="radialGradient196"
       gradientUnits="userSpaceOnUse"
       gradientTransform="matrix(1.5555375,1.1050529,-0.99009452,1.3937154,-2933.7713,4380.392)"
       cx="-2441.8174"
       cy="-4333.2148"
       fx="-2441.8174"
       fy="-4333.2148"
       r="437.08853" /><radialGradient
       xlink:href="#linearGradient126"
       id="radialGradient197"
       gradientUnits="userSpaceOnUse"
       gradientTransform="matrix(1.2403964,0.34585743,-0.42400046,1.5206515,-1247.7869,3057.54)"
       cx="-2391.7979"
       cy="-4289.9072"
       fx="-2391.7979"
       fy="-4289.9072"
       r="399.07413" /><radialGradient
       xlink:href="#linearGradient126"
       id="radialGradient198"
       gradientUnits="userSpaceOnUse"
       gradientTransform="matrix(1.1762751,8.1578772e-5,-1.1110759e-4,1.6022777,425.98455,2612.176)"
       cx="-2419.3374"
       cy="-4357.7935"
       fx="-2419.3374"
       fy="-4357.7935"
       r="344.97653" /><radialGradient
       xlink:href="#linearGradient128"
       id="radialGradient199"
       gradientUnits="userSpaceOnUse"
       gradientTransform="matrix(2.0112474,0.13875728,-0.13613245,1.9732019,1881.9225,4616.4793)"
       cx="-2452.7009"
       cy="-4398.1787"
       fx="-2452.7009"
       fy="-4398.1787"
       r="295.57394" /><linearGradient
       xlink:href="#linearGradient33"
       id="linearGradient11"
       gradientUnits="userSpaceOnUse"
       x1="96.479095"
       y1="148.69229"
       x2="238.6393"
       y2="148.69229"
       gradientTransform="matrix(1.5232124,0,0,1.5232124,-39.667986,-78.794203)" /><linearGradient
       xlink:href="#linearGradient25"
       id="linearGradient3"
       gradientUnits="userSpaceOnUse"
       x1="44.809975"
       y1="138.90785"
       x2="104.29602"
       y2="160.55901" /><linearGradient
       xlink:href="#linearGradient2"
       id="linearGradient5"
       gradientUnits="userSpaceOnUse"
       gradientTransform="translate(-159.98944,238.13925)"
       x1="236.89966"
       y1="-108.37763"
       x2="250.48952"
       y2="-113.68028" /><linearGradient
       xlink:href="#linearGradient6-6"
       id="linearGradient9"
       gradientUnits="userSpaceOnUse"
       gradientTransform="translate(-159.87622,238.3354)"
       x1="257.88525"
       y1="-119.01272"
       x2="257.21884"
       y2="-125.71626" /><linearGradient
       xlink:href="#linearGradient6-6"
       id="linearGradient10"
       gradientUnits="userSpaceOnUse"
       gradientTransform="translate(-159.8834,238.25202)"
       x1="231.56932"
       y1="-66.523209"
       x2="245.94902"
       y2="-94.240067" /><style
       id="style1">.a{fill:#157cff;}.b{fill:#3a52dd;}.c{fill:#3c54df;}</style></defs><g
     id="layer1"
     transform="translate(2030.6771,1187.3179)"><g
       id="g195"
       transform="translate(2022.2104,10.450951)"><g
         id="g184"
         transform="matrix(-1,0,0,1,-5078.9644,3507.9125)"><path
           d="m -1026.0769,-2734.8236 v -1970.8576 h -847.6123 c 1.7122,76.9785 -9.1677,159.8898 0.7906,234.7598 18.9913,142.7829 118.7806,293.9845 50.2192,420.6611 -68.5615,126.6766 -249.7217,125.8189 -379.6477,188.003 -129.926,62.1841 -242.891,203.8136 -384.5543,177.753 -32.8508,-6.0433 -61.0498,-19.9642 -86.2268,-39.086 v 988.7667 z"
           style="fill:url(#linearGradient196);fill-opacity:1;stroke:none;stroke-width:13.954;stroke-linecap:round;stroke-linejoin:round;paint-order:markers fill stroke"
           id="path180" /><path
           d="m -2673.1082,-3723.5903 c 25.177,19.1218 53.376,33.0427 86.2268,39.086 141.6633,26.0606 254.6283,-115.5689 384.5543,-177.753 129.926,-62.1841 311.0862,-61.3264 379.6477,-188.003 68.5614,-126.6766 -31.2279,-277.8782 -50.2192,-420.6611 -9.9583,-74.87 0.9216,-157.7813 -0.7906,-234.7598 h -69.4516 c 7.6339,77.6157 -7.6242,165.6239 2.7652,243.7349 16.7954,126.274 105.0475,259.9929 44.4133,372.0228 -60.6342,112.0299 -220.8485,111.2716 -335.7521,166.2658 -114.9036,54.9942 -214.8066,180.2482 -340.0904,157.2008 -40.4443,-7.4402 -72.9166,-28.3824 -101.3034,-56.4384 z"
           style="fill:url(#radialGradient196);fill-opacity:1;stroke:none;stroke-width:13.954;stroke-linecap:round;stroke-linejoin:round;paint-order:markers fill stroke"
           id="path181" /><path
           d="m -2673.1082,-3822.8953 c 28.3868,28.056 60.8591,48.9982 101.3034,56.4384 125.2838,23.0474 225.1868,-102.2066 340.0904,-157.2008 114.9036,-54.9942 275.1179,-54.2359 335.7521,-166.2658 60.6342,-112.0299 -27.6179,-245.7488 -44.4133,-372.0228 -10.3894,-78.111 4.8687,-166.1192 -2.7652,-243.7349 h -108.7365 c 29.6653,74.0843 4.2844,172.3523 15.4776,256.5068 13.6706,102.7804 85.5027,211.6209 36.1497,302.8073 -49.353,91.1865 -179.7591,90.5689 -273.2846,135.3313 -93.5255,44.7624 -174.8413,146.7128 -276.8157,127.9534 -53.5512,-9.8513 -89.9314,-48.7849 -122.7579,-94.4175 z"
           style="fill:url(#radialGradient197);fill-opacity:1;stroke:none;stroke-width:13.954;stroke-linecap:round;stroke-linejoin:round;paint-order:markers fill stroke"
           id="path182" /><path
           d="m -2673.1082,-3977.4999 c 32.8265,45.6326 69.2067,84.5662 122.7579,94.4175 101.9744,18.7594 183.2902,-83.191 276.8157,-127.9534 93.5255,-44.7624 223.9316,-44.1448 273.2846,-135.3313 49.353,-91.1864 -22.4791,-200.0269 -36.1497,-302.8073 -11.1932,-84.1545 14.1877,-182.4225 -15.4776,-256.5068 h -288.3034 c 63.1898,1.547 128.7934,-3.6258 170.2956,39.9918 54.233,56.9975 23.2097,150.9611 33.5829,228.9504 10.3732,77.9893 64.8793,160.5771 27.4304,229.7689 -37.4488,69.1919 -136.4,68.7233 -207.3667,102.6888 -70.9667,33.9655 -132.6689,111.3248 -210.0466,97.0902 -69.9988,-12.877 -101.3331,-91.2391 -146.8231,-148.2643 z"
           style="fill:url(#radialGradient198);fill-opacity:1;stroke:none;stroke-width:13.954;stroke-linecap:round;stroke-linejoin:round;paint-order:markers fill stroke"
           id="path183" /><path
           d="m -2673.1082,-4155.4554 c 45.49,57.0252 76.8243,135.3873 146.8231,148.2643 77.3777,14.2346 139.0799,-63.1247 210.0466,-97.0902 70.9667,-33.9655 169.9179,-33.4969 207.3667,-102.6888 37.4489,-69.1918 -17.0572,-151.7796 -27.4304,-229.7689 -10.3732,-77.9893 20.6501,-171.9529 -33.5829,-228.9504 -41.5022,-43.6176 -107.1058,-38.4448 -170.2956,-39.9918 h -332.2872 c -0.2145,0.3356 -0.4278,0.6725 -0.6403,1.0102 z"
           style="fill:url(#radialGradient199);fill-opacity:1;stroke:none;stroke-width:13.954;stroke-linecap:round;stroke-linejoin:round;paint-order:markers fill stroke"
           id="path184" /></g><g
         id="g1350"
         transform="matrix(0.27931679,0,0,0.27931679,-3822.4955,-736.20048)"><path
           style="fill:#ba90ff;fill-opacity:1;stroke:none;stroke-width:0;stroke-miterlimit:4;stroke-dasharray:none;stroke-opacity:1"
           d="m 495.77571,178.5979 a 48.929668,48.529248 0 0 0 -18.75129,4.74509 L 221.1495,305.6027 a 48.929668,48.529248 0 0 0 -26.47433,32.92111 L 131.5491,613.15002 a 48.929668,48.529248 0 0 0 6.64313,37.20805 48.929668,48.529248 0 0 0 2.7816,3.86153 l 177.10642,220.20492 a 48.929668,48.529248 0 0 0 38.25525,18.26042 l 284.01821,-0.0654 a 48.929668,48.529248 0 0 0 38.25525,-18.22769 l 177.04097,-220.2377 a 48.929668,48.529248 0 0 0 9.45745,-41.06958 L 801.88314,338.45836 A 48.929668,48.529248 0 0 0 775.40881,305.53725 L 519.50117,183.34299 a 48.929668,48.529248 0 0 0 -23.72546,-4.74509 z"
           id="path3055" /><path
           id="path3059"
           d="m 498.31112,272.05685 c -8.45813,8.6e-4 -15.31619,7.61928 -15.31519,17.01687 1e-5,0.14423 0.0295,0.28205 0.0327,0.42542 -0.0125,1.27691 -0.0741,2.81523 -0.0327,3.92697 0.20171,5.42027 1.38324,9.56871 2.09439,14.56252 1.28834,10.68834 2.36788,19.54832 1.70169,27.78333 -0.64789,3.10534 -2.93516,5.94534 -4.97417,7.91939 l -0.35997,6.4795 c -9.19102,0.76149 -18.44352,2.1559 -27.68515,4.25422 -39.76672,9.02908 -74.00517,29.5131 -100.07232,57.17016 -1.69145,-1.15393 -4.65062,-3.27681 -5.53054,-3.92697 -2.7344,0.36926 -5.49798,1.21295 -9.09748,-0.88357 -6.85378,-4.61354 -13.09606,-10.98183 -20.64933,-18.65311 -3.46095,-3.66956 -5.96724,-7.16386 -10.07923,-10.701 -0.9338,-0.80327 -2.35888,-1.88971 -3.40337,-2.71616 -3.21476,-2.56307 -7.00645,-3.89976 -10.66827,-4.02514 -4.70807,-0.16121 -9.24037,1.67954 -12.20634,5.39958 -5.27283,6.61342 -3.58466,16.72163 3.76335,22.58009 0.0746,0.0594 0.15396,0.10554 0.22907,0.16362 1.00973,0.81851 2.24619,1.86728 3.1743,2.55254 4.36352,3.22174 8.34948,4.87096 12.69721,7.42852 9.15979,5.65673 16.75337,10.34716 22.77644,16.00241 2.35201,2.50715 2.7631,6.925 3.07612,8.83568 l 4.90872,4.38512 c -26.27764,39.54584 -38.43915,88.39294 -31.2521,138.16395 l -6.41405,1.86531 c -1.69048,2.18299 -4.07925,5.61791 -6.57773,6.64313 -7.88026,2.48206 -16.74905,3.39352 -27.45608,4.51601 -5.02684,0.41799 -9.36418,0.16855 -14.69342,1.17809 -1.17293,0.2222 -2.80722,0.64798 -4.09059,0.94902 -0.0446,0.009 -0.0863,0.0226 -0.1309,0.0327 -0.07,0.0162 -0.16185,0.0502 -0.22907,0.0654 -9.02695,2.18109 -14.82588,10.47821 -12.95901,18.65312 1.86731,8.17682 10.68465,13.14935 19.76576,11.19187 0.0656,-0.015 0.16074,-0.0175 0.22907,-0.0327 0.10252,-0.0235 0.19278,-0.0732 0.29452,-0.0981 1.2659,-0.27788 2.85232,-0.58705 3.9597,-0.88357 5.23946,-1.40285 9.03407,-3.46407 13.7444,-5.26868 10.13362,-3.63457 18.52665,-6.67085 26.70341,-7.85395 3.41508,-0.26747 7.01316,2.10712 8.80296,3.10886 l 6.67585,-1.14537 c 15.3625,47.62926 47.55736,86.12636 88.32413,110.28245 l -2.7816,6.67585 c 1.0026,2.59224 2.10843,6.09958 1.36158,8.65957 -2.97265,7.70859 -8.0644,15.84504 -13.86244,24.91604 -2.80737,4.19078 -5.68053,7.44303 -8.21392,12.23906 -0.60622,1.14761 -1.37829,2.91048 -1.96348,4.12332 -3.93623,8.4219 -1.04891,18.12187 6.51223,21.76197 7.60863,3.66295 17.05297,-0.20037 21.14019,-8.63934 0.006,-0.0119 0.0269,-0.0207 0.0327,-0.0327 0.004,-0.009 -0.004,-0.0236 0,-0.0327 0.58217,-1.19647 1.40694,-2.76916 1.89804,-3.89424 2.16992,-4.97105 2.89194,-9.23107 4.41784,-14.03893 4.05224,-10.17885 6.27862,-20.85905 11.85692,-27.51404 1.52752,-1.82236 4.01788,-2.52321 6.59985,-3.21451 l 3.46882,-6.28315 c 35.53987,13.64156 75.32106,17.30219 115.06027,8.27936 9.06551,-2.05833 17.81739,-4.72226 26.27798,-7.91939 0.97492,1.72926 2.78672,5.05344 3.27248,5.89046 2.62384,0.85365 5.48775,1.29447 7.82122,4.74509 4.17347,7.13031 7.0276,15.56563 10.50465,25.75439 1.52615,4.80777 2.28038,9.06798 4.45057,14.03892 0.49463,1.13301 1.31527,2.72779 1.89803,3.92697 4.07863,8.46638 13.55289,12.34291 21.17292,8.67206 7.56021,-3.64203 10.45071,-13.34112 6.51223,-21.76196 -0.58526,-1.2128 -1.38994,-2.97575 -1.99621,-4.12332 -2.53364,-4.79589 -5.40634,-8.01572 -8.21392,-12.20634 -5.79852,-9.0707 -10.60772,-16.60606 -13.58077,-24.3145 -1.24313,-3.97574 0.20973,-6.44834 1.17809,-9.03203 -0.57991,-0.66473 -1.82087,-4.41925 -2.55253,-6.18498 42.36668,-25.0155 73.61612,-64.94823 88.29141,-111.06785 1.9817,0.31146 5.42607,0.92086 6.54495,1.14537 2.30334,-1.51916 4.42118,-3.50131 8.57389,-3.1743 8.17681,1.18266 16.5696,4.2199 26.7034,7.85394 4.71043,1.80438 8.50488,3.89883 13.7444,5.30141 1.1074,0.29645 2.69378,0.57303 3.9597,0.85085 0.10179,0.0249 0.19195,0.0748 0.29452,0.0981 0.0684,0.0153 0.16352,0.0177 0.22908,0.0327 9.08163,1.95506 17.90054,-3.01456 19.76575,-11.19187 1.86478,-8.17539 -3.93147,-16.47444 -12.959,-18.65311 -1.31311,-0.29859 -3.17535,-0.80569 -4.45057,-1.0472 -5.32929,-1.00926 -9.66655,-0.76036 -14.69342,-1.17809 -10.70708,-1.12194 -19.57569,-2.03437 -27.45607,-4.51601 -3.21306,-1.24646 -5.49884,-5.06971 -6.61046,-6.64313 l -6.18498,-1.79986 c 3.20678,-23.19994 2.3421,-47.34497 -3.20703,-71.50361 -5.60079,-24.38357 -15.49883,-46.68472 -28.69961,-66.33309 1.58655,-1.44229 4.58271,-4.09548 5.43231,-4.87599 0.24835,-2.74801 0.035,-5.62922 2.87978,-8.67206 6.02276,-5.65557 13.61694,-10.3452 22.77643,-16.00241 4.3476,-2.55779 8.36659,-4.20655 12.72993,-7.42852 0.98672,-0.7286 2.33409,-1.88243 3.37065,-2.71616 7.34646,-5.86043 9.03788,-15.96803 3.76335,-22.58009 -5.27453,-6.61205 -15.49543,-7.23487 -22.84188,-1.37444 -1.04569,0.82818 -2.4646,1.90853 -3.40338,2.71616 -4.1118,3.53737 -6.65119,7.03126 -10.11195,10.701 -7.55286,7.67168 -13.79578,14.07193 -20.64932,18.68584 -2.96985,1.72897 -7.31984,1.13073 -9.29389,1.01446 l -5.82501,4.15605 c -33.21568,-34.83022 -78.43959,-57.09865 -127.13549,-61.42443 -0.1362,-2.04069 -0.31463,-5.72937 -0.35997,-6.83948 -1.99355,-1.90762 -4.40179,-3.53622 -5.00689,-7.65759 -0.66619,-8.23501 0.44607,-17.09499 1.73441,-27.78333 0.71115,-4.99381 1.89268,-9.14225 2.09439,-14.56252 0.0459,-1.23215 -0.0277,-3.02011 -0.0327,-4.35239 -10e-4,-9.39759 -6.85705,-17.01772 -15.31518,-17.01687 z m -19.17671,118.79088 -4.54874,80.33929 -0.32725,0.16363 c -0.30509,7.18725 -6.22028,12.92628 -13.4826,12.92628 -2.97487,0 -5.72075,-0.95534 -7.95212,-2.58526 l -0.1309,0.0654 -65.87494,-46.69823 c 20.24605,-19.90834 46.14234,-34.62059 75.9869,-41.39683 5.45167,-1.23781 10.90091,-2.15627 16.32965,-2.81433 z m 38.38615,0 c 34.84372,4.28545 67.06745,20.06297 91.76023,44.24388 l -65.44952,46.40371 -0.22908,-0.0981 c -5.80924,4.2429 -13.99408,3.19016 -18.52221,-2.48708 -1.85491,-2.32577 -2.82817,-5.06044 -2.94523,-7.82122 l -0.0655,-0.0327 z m -154.59178,74.21976 60.14811,53.79951 -0.0654,0.32725 c 5.42904,4.71967 6.22963,12.90973 1.70169,18.58767 -1.85478,2.32586 -4.33755,3.88585 -7.0031,4.61419 l -0.0654,0.2618 -77.09954,22.25283 c -3.92412,-35.88222 4.53283,-70.7626 22.38374,-99.84325 z m 270.33926,0.0327 c 8.93685,14.48535 15.70428,30.66403 19.73304,48.20357 3.98044,17.32923 4.97939,34.62748 3.33792,51.34515 l -77.49224,-22.31828 -0.0654,-0.32725 c -6.93922,-1.89651 -11.20383,-8.95519 -9.58835,-16.03514 0.66186,-2.90032 2.20143,-5.35391 4.28694,-7.16672 l -0.0327,-0.16362 59.82087,-53.53771 z M 485.97389,523.023 h 24.64174 l 15.31519,19.14398 -5.49776,23.88908 -22.12194,10.63555 -22.18739,-10.66828 -5.49776,-23.88907 z m 78.99757,65.51497 c 1.04717,-0.0529 2.08976,0.0415 3.10886,0.22907 l 0.1309,-0.16362 79.75024,13.4826 c -11.67148,32.79084 -34.00528,61.19811 -63.84601,80.20839 l -30.95762,-74.77608 0.0981,-0.1309 c -2.84377,-6.60777 0.002,-14.35654 6.54495,-17.50774 1.67514,-0.80677 3.42525,-1.2535 5.17051,-1.34172 z m -133.94245,0.32725 c 6.08601,0.0853 11.5449,4.30946 12.95901,10.50465 0.66202,2.90028 0.33981,5.77395 -0.75267,8.31209 l 0.22907,0.29452 -30.63038,74.02341 C 384.19631,663.62313 361.38625,636.1077 349.18438,602.34787 l 79.06303,-13.41715 0.1309,0.16362 c 0.88436,-0.16274 1.78127,-0.24127 2.6507,-0.22907 z m 66.79124,32.43029 c 2.11999,-0.0779 4.27113,0.35707 6.31588,1.34172 2.6803,1.29069 4.75083,3.32294 6.05408,5.75955 h 0.29452 l 38.9752,70.42369 c -5.05825,1.69565 -10.25839,3.1448 -15.57699,4.3524 -29.80784,6.7679 -59.52097,4.71725 -86.4261,-4.45057 l 38.87702,-70.29279 h 0.0654 c 2.3328,-4.36094 6.75698,-6.96265 11.42094,-7.134 z"
           style="color:#000000;font-style:normal;font-variant:normal;font-weight:normal;font-stretch:normal;font-size:medium;line-height:normal;font-family:Sans;-inkscape-font-specification:Sans;text-indent:0;text-align:start;text-decoration:none;text-decoration-line:none;letter-spacing:normal;word-spacing:normal;text-transform:none;writing-mode:lr-tb;direction:ltr;baseline-shift:baseline;text-anchor:start;display:inline;overflow:visible;visibility:visible;fill:#262626;fill-opacity:1;stroke:none;stroke-width:0;stroke-miterlimit:4;stroke-dasharray:none;stroke-opacity:1;marker:none;enable-background:accumulate" /></g></g></g></svg>
