<?xml version="1.0" encoding="UTF-8" standalone="no"?>
<!-- Uploaded to: SVG Repo, www.svgrepo.com, Generator: SVG Repo Mixer Tools -->

<svg
   width="800px"
   height="800px"
   viewBox="0 -8.5 256 256"
   version="1.1"
   preserveAspectRatio="xMidYMid"
   id="svg26"
   sodipodi:docname="linkerd.svg"
   inkscape:version="1.4.2 (f4327f4, 2025-05-13)"
   xmlns:inkscape="http://www.inkscape.org/namespaces/inkscape"
   xmlns:sodipodi="http://sodipodi.sourceforge.net/DTD/sodipodi-0.dtd"
   xmlns:xlink="http://www.w3.org/1999/xlink"
   xmlns="http://www.w3.org/2000/svg"
   xmlns:svg="http://www.w3.org/2000/svg">
  <sodipodi:namedview
     id="namedview26"
     pagecolor="#505050"
     bordercolor="#eeeeee"
     borderopacity="1"
     inkscape:showpageshadow="0"
     inkscape:pageopacity="0"
     inkscape:pagecheckerboard="0"
     inkscape:deskcolor="#505050"
     inkscape:zoom="0.96625"
     inkscape:cx="400.51746"
     inkscape:cy="400"
     inkscape:window-width="1920"
     inkscape:window-height="991"
     inkscape:window-x="-9"
     inkscape:window-y="-9"
     inkscape:window-maximized="1"
     inkscape:current-layer="g26" />
  <defs
     id="defs2">
    <linearGradient
       x1="0.5"
       y1="0"
       x2="0.5"
       y2="1"
       id="linearGradient29"
       gradientUnits="objectBoundingBox"
       spreadMethod="pad">
      <stop
         stop-color="#4AD8AC"
         offset="0"
         id="stop28"
         style="stop-color:#f3f3f3;stop-opacity:1;" />
      <stop
         stop-color="#4076C4"
         offset="100%"
         id="stop29" />
    </linearGradient>
    <linearGradient
       x1="50%"
       y1="0%"
       x2="50%"
       y2="100%"
       id="linearGradient27">
      <stop
         stop-color="#4AD8AC"
         offset="0"
         id="stop26"
         style="stop-color:#f3f3f3;stop-opacity:1;" />
      <stop
         stop-color="#4076C4"
         offset="100%"
         id="stop27" />
    </linearGradient>
    <linearGradient
       x1="50%"
       y1="0%"
       x2="50%"
       y2="100%"
       id="linearGradient-1"
       xlink:href="#linearGradient29">
      <stop
         stop-color="#4AD8AC"
         offset="0%"
         id="stop1" />
      <stop
         stop-color="#4076C4"
         offset="100%"
         id="stop2" />
    </linearGradient>
  </defs>
  <g
     id="g26">
    <g
       transform="translate(0.000000, 44.444444)"
       id="g5"
       style="fill:#676767;fill-opacity:1">
      <polygon
         fill="#40A0B4"
         points="238.2176 97.2113778 255.995378 107.474489 255.995378 11.0744889 238.2176 0.807822222"
         id="polygon2"
         style="fill:#676767;fill-opacity:1" />
      <polygon
         fill="#40A0B4"
         points="0 11.0753778 0 107.480711 17.7777778 97.2122667 17.7777778 0.810488889"
         id="polygon3"
         style="fill:#676767;fill-opacity:1" />
      <polygon
         fill="#40A0B4"
         points="78.232 183.513778 96.0097778 193.776889 138.338667 169.337778 120.560889 159.074667"
         id="polygon4"
         style="fill:#676767;fill-opacity:1" />
      <polygon
         fill="#338090"
         points="103.117511 169.145956 120.895289 179.410844 138.338844 169.337956 120.561067 159.074844"
         id="polygon5"
         style="fill:#676767;fill-opacity:1" />
    </g>
    <g
       transform="translate(87.111111, 133.333333)"
       fill="#45C1A8"
       id="g7"
       style="fill:#929292;fill-opacity:1">
      <polygon
         points="81.7729778 64.8551111 81.7729778 44.3271111 5.2272 0.131555556 0.000533333333 3.14844444 0.00942222222 3.15377778 0.00942222222 17.648"
         id="polygon6"
         style="fill:#929292;fill-opacity:1" />
      <polygon
         points="0.00888888889 62.8104889 72.8888889 104.888711 90.6702222 94.6256 0.00888888889 42.2807111"
         id="polygon7"
         style="fill:#929292;fill-opacity:1" />
    </g>
    <g
       fill="#7CE1C0"
       id="g13"
       style="fill:#f3f3f3;fill-opacity:1">
      <polygon
         points="194.712 70.3742222 212.488 80.6373333 255.995556 55.5191111 238.214222 45.2577778"
         id="polygon8"
         style="fill:#f3f3f3;fill-opacity:1" />
      <polygon
         points="136.989867 124.228978 119.212089 113.965867 78.2236444 137.631644 96.0014222 147.894756"
         id="polygon9"
         style="fill:#f3f3f3;fill-opacity:1" />
      <polygon
         points="216.8928 32.9425778 199.111467 22.6794667 155.609244 47.7976889 173.387022 58.0625778"
         id="polygon10"
         style="fill:#f3f3f3;fill-opacity:1" />
      <polygon
         points="97.8876444 101.652622 80.1098667 91.3895111 39.1214222 115.055289 56.8992 125.3184"
         id="polygon11"
         style="fill:#f3f3f3;fill-opacity:1" />
      <polygon
         points="116.5072 25.2222222 134.284978 35.4853333 177.790756 10.3671111 160.009422 0.104"
         id="polygon12"
         style="fill:#f3f3f3;fill-opacity:1" />
      <polygon
         points="0.0192 92.4782222 17.7969778 102.741333 58.7854222 79.0773333 41.0076444 68.8124444"
         id="polygon13"
         style="fill:#f3f3f3;fill-opacity:1" />
    </g>
    <g
       transform="translate(0.000000, 92.444444)"
       fill="url(#linearGradient-1)"
       id="g19"
       style="fill:#b8b8b8;fill-opacity:1">
      <polygon
         points="238.2176 10.2897778 238.2176 100.616889 255.995378 90.352 255.995378 0.0266666667"
         id="polygon14"
         style="fill:#b8b8b8;fill-opacity:1" />
      <polygon
         points="216.883556 112.932622 216.883556 22.6072889 199.105778 32.8704 199.105778 123.197511"
         id="polygon15"
         style="fill:#b8b8b8;fill-opacity:1" />
      <polygon
         points="159.9936 55.4513778 159.9936 145.778489 177.773156 135.5136 177.773156 45.1864889"
         id="polygon16"
         style="fill:#b8b8b8;fill-opacity:1" />
      <polygon
         points="78.232 135.513778 96.0097778 145.776889 96.0097778 55.4533333 78.232 45.1866667"
         id="polygon17"
         style="fill:#b8b8b8;fill-opacity:1" />
      <polygon
         points="56.8986667 32.8714667 56.8986667 123.1968 39.1208889 112.933689 39.1208889 22.6065778"
         id="polygon18"
         style="fill:#b8b8b8;fill-opacity:1" />
      <polygon
         points="0.0096 90.3521778 17.7873778 100.615289 17.7873778 10.2899556 0.0096 0.0250666667"
         id="polygon19"
         style="fill:#b8b8b8;fill-opacity:1" />
    </g>
    <g
       transform="translate(24.888889, 67.555556)"
       fill="#45C1A8"
       id="g22"
       style="fill:#b8b8b8;fill-opacity:1">
      <polygon
         points="78.2190222 55.7077333 95.9968 65.9708444 112.101689 56.6730667 94.3239111 46.4099556"
         id="polygon20"
         style="fill:#b8b8b8;fill-opacity:1" />
      <polygon
         points="0.0149333333 10.5550222 17.7927111 20.8181333 33.8958222 11.5203556 16.1198222 1.25724444"
         id="polygon21"
         style="fill:#b8b8b8;fill-opacity:1" />
      <polygon
         points="39.1171556 33.1313778 56.8949333 43.3944889 72.9980444 34.0967111 55.2220444 23.8336"
         id="polygon22"
         style="fill:#b8b8b8;fill-opacity:1" />
    </g>
    <g
       fill="#A2EACF"
       id="g25"
       style="fill:#f3f3f3;fill-opacity:1">
      <polygon
         points="96.0016 0.0942222222 78.2220444 10.3573333 238.214933 102.732444 255.994489 92.4693333"
         id="polygon23"
         style="fill:#f3f3f3;fill-opacity:1" />
      <polygon
         points="56.8894222 22.6757333 39.1116444 32.9388444 199.102756 125.313956 216.884089 115.050844"
         id="polygon24"
         style="fill:#f3f3f3;fill-opacity:1" />
      <polygon
         points="0 55.5198222 159.991111 147.894933 177.772444 137.631822 17.7777778 45.2567111"
         id="polygon25"
         style="fill:#f3f3f3;fill-opacity:1" />
    </g>
  </g>
</svg>
