<?xml version="1.0" encoding="UTF-8" standalone="no"?>
<!-- Created with Inkscape (http://www.inkscape.org/) -->

<svg
   width="164.70312cm"
   height="166.06503cm"
   viewBox="0 0 1647.0312 1660.6503"
   version="1.1"
   id="svg1"
   xml:space="preserve"
   sodipodi:docname="pricing background.svg"
   inkscape:version="1.4.2 (f4327f4, 2025-05-13)"
   xmlns:inkscape="http://www.inkscape.org/namespaces/inkscape"
   xmlns:sodipodi="http://sodipodi.sourceforge.net/DTD/sodipodi-0.dtd"
   xmlns:xlink="http://www.w3.org/1999/xlink"
   xmlns="http://www.w3.org/2000/svg"
   xmlns:svg="http://www.w3.org/2000/svg"><sodipodi:namedview
     id="namedview1"
     pagecolor="#505050"
     bordercolor="#eeeeee"
     borderopacity="1"
     inkscape:showpageshadow="0"
     inkscape:pageopacity="0"
     inkscape:pagecheckerboard="0"
     inkscape:deskcolor="#505050"
     inkscape:document-units="cm"
     inkscape:zoom="0.12315833"
     inkscape:cx="3113.878"
     inkscape:cy="3138.2368"
     inkscape:window-width="1920"
     inkscape:window-height="991"
     inkscape:window-x="-9"
     inkscape:window-y="-9"
     inkscape:window-maximized="1"
     inkscape:current-layer="layer1" /><defs
     id="defs1"><linearGradient
       id="linearGradient130"><stop
         style="stop-color:#9443ee;stop-opacity:1;"
         offset="0"
         id="stop129" /><stop
         style="stop-color:#3a1d61;stop-opacity:0;"
         offset="1"
         id="stop130" /></linearGradient><color-profile
       name="sRGB-IEC61966-2.1"
       xlink:href="file:///C:/WINDOWS/system32/spool/drivers/color/sRGB%20Color%20Space%20Profile.icm"
       id="color-profile2" /><rect
       x="-7062.5005"
       y="9762.5"
       width="4987.5"
       height="837.50006"
       id="rect122" /><linearGradient
       id="linearGradient6"><stop
         style="stop-color:#2e2e2e;stop-opacity:1;"
         offset="0"
         id="stop6" /><stop
         style="stop-color:#2e2e2e;stop-opacity:0;"
         offset="1"
         id="stop7" /></linearGradient><linearGradient
       xlink:href="#linearGradient6"
       id="linearGradient7"
       x1="641.42114"
       y1="263.51575"
       x2="641.42114"
       y2="389.19293"
       gradientUnits="userSpaceOnUse" /><linearGradient
       xlink:href="#linearGradient6"
       id="linearGradient8"
       x1="823.24792"
       y1="263.51581"
       x2="823.24792"
       y2="389.19287"
       gradientUnits="userSpaceOnUse" /><linearGradient
       xlink:href="#linearGradient130"
       id="linearGradient4"
       x1="-1207.1616"
       y1="1157.5525"
       x2="-1207.1616"
       y2="2804.5835"
       gradientUnits="userSpaceOnUse"
       gradientTransform="translate(0,-210.01303)" /><style
       id="style1">.a{fill:#157cff;}.b{fill:#3a52dd;}.c{fill:#3c54df;}</style></defs><g
     id="layer1"
     transform="translate(2030.6771,-2325.2722)"><g
       id="g1"
       transform="translate(0,1250.0728)"><path
         d="m -383.64583,1318.9681 c -11.37926,-4.3814 -23.74127,-6.7831 -36.66443,-6.7831 -3.63374,10e-5 -7.26538,0.1941 -10.87841,0.5814 -11.48853,-98.6178 -95.02843,-172.991 -194.3132,-172.991 -57.58759,0 -112.24968,25.3737 -149.41982,69.3591 -21.42439,-8.1843 -44.16537,-12.3801 -67.09978,-12.3801 -28.58488,0 -56.7934,6.5172 -82.48127,19.0562 -6.68221,-54.2635 -52.7748,-95.0278 -107.44826,-95.0278 -32.8344,0 -63.8944,14.9014 -84.4418,40.5122 -23.8198,-6.7171 -48.4509,-10.1239 -73.1997,-10.1239 -33.5951,10e-5 -66.8944,6.277 -98.1842,18.5074 -45.2548,-59.5268 -115.7328,-94.479 -190.5088,-94.479 -99.1361,0 -188.0084,61.1243 -223.4737,153.6997 -17.2699,-6.1892 -35.4775,-9.3535 -53.823,-9.3535 -71.3126,0 -133.9646,47.3261 -153.462,115.9216 -18.2751,-15.0517 -41.2141,-23.2823 -64.8896,-23.2823 -20.9989,0 -40.517,6.3413 -56.7433,17.2135 v 1406.4514 h 1647.03127 z"
         style="fill:url(#linearGradient4);stroke-width:5.44412;stroke-linecap:round;stroke-linejoin:round;paint-order:markers fill stroke"
         id="path22" /></g></g></svg>
