<?xml version="1.0" encoding="UTF-8" standalone="no"?>
<!-- Created with Inkscape (http://www.inkscape.org/) -->

<svg
   width="40"
   height="40"
   viewBox="0 0 10.583333 10.583333"
   version="1.1"
   id="svg1"
   inkscape:version="1.4.2 (f4327f4, 2025-05-13)"
   sodipodi:docname="service icon dark ui.svg"
   xmlns:inkscape="http://www.inkscape.org/namespaces/inkscape"
   xmlns:sodipodi="http://sodipodi.sourceforge.net/DTD/sodipodi-0.dtd"
   xmlns="http://www.w3.org/2000/svg"
   xmlns:svg="http://www.w3.org/2000/svg">
  <sodipodi:namedview
     id="namedview1"
     pagecolor="#505050"
     bordercolor="#eeeeee"
     borderopacity="1"
     inkscape:showpageshadow="0"
     inkscape:pageopacity="0"
     inkscape:pagecheckerboard="0"
     inkscape:deskcolor="#505050"
     inkscape:document-units="mm"
     inkscape:zoom="15.581903"
     inkscape:cx="17.231528"
     inkscape:cy="17.809121"
     inkscape:window-width="1920"
     inkscape:window-height="991"
     inkscape:window-x="-9"
     inkscape:window-y="-9"
     inkscape:window-maximized="1"
     inkscape:current-layer="layer1" />
  <defs
     id="defs1" />
  <g
     inkscape:label="Layer 1"
     inkscape:groupmode="layer"
     id="layer1">
    <g
       id="g41"
       transform="matrix(0.20093756,0,0,0.20093756,-532.25348,50.232407)"
       style="fill:#f3f3f3;fill-opacity:1">
      <path
         d="m 2664.6994,-248.81961 c -8.1325,0 -14.6802,6.54469 -14.6802,14.6772 v 20.9713 c 0,8.13251 6.5477,14.68021 14.6802,14.68021 h 20.9713 c 8.1325,0 14.6802,-6.5477 14.6802,-14.68021 v -20.9713 c 0,-8.13251 -6.5477,-14.6772 -14.6802,-14.6772 z m 0.3727,11.0312 h 2.1762 v 2.00485 h -1.6532 c -1.3154,0 -2.2738,0.30438 -2.8735,0.91376 -0.59,0.60937 -0.8837,1.5915 -0.8837,2.94566 v 2.53687 c 0,1.34449 -0.3734,2.47763 -1.1181,3.39653 -0.7448,0.90922 -1.7799,1.62916 -3.105,2.16115 v 0.34867 c 1.3251,0.53199 2.3602,1.25729 3.105,2.17618 0.7447,0.90922 1.1181,2.03701 1.1181,3.3815 v 2.53687 c 0,1.35416 0.2937,2.33629 0.8837,2.94566 0.5997,0.60937 1.5581,0.91376 2.8735,0.91376 h 1.6532 v 2.00185 h -2.1762 c -1.7314,0 -3.1368,-0.48153 -4.2201,-1.44879 -1.0736,-0.95758 -1.6111,-2.34756 -1.6111,-4.166 v -2.16116 c 0,-1.63466 -0.4025,-2.91046 -1.2053,-3.82935 -0.8028,-0.92857 -2.0311,-1.39468 -3.6851,-1.39468 h -0.7394 v -2.26335 h 0.7394 c 1.654,0 2.8823,-0.45776 3.6851,-1.37665 0.8028,-0.92856 1.2053,-2.20972 1.2053,-3.84439 v -2.16415 c 0,-1.81845 0.5375,-3.20542 1.6111,-4.163 1.0833,-0.96726 2.4887,-1.45179 4.2201,-1.45179 z m 18.0497,0 h 2.1762 c 1.7314,0 3.1344,0.48453 4.2081,1.45179 1.0833,0.95758 1.6261,2.34455 1.6261,4.163 v 2.16415 c 0,1.63467 0.3995,2.91583 1.2023,3.84439 0.8028,0.91889 2.0311,1.37665 3.6851,1.37665 h 0.7394 v 2.26335 h -0.7394 c -1.654,0 -2.8823,0.46611 -3.6851,1.39468 -0.8028,0.91889 -1.2023,2.19469 -1.2023,3.82935 v 2.16116 c 0,1.81844 -0.5428,3.20842 -1.6261,4.166 -1.0737,0.96726 -2.4767,1.44879 -4.2081,1.44879 h -2.1762 v -2.00185 h 1.6532 c 1.3154,0 2.2684,-0.30439 2.8585,-0.91376 0.5997,-0.60937 0.8987,-1.5915 0.8987,-2.94566 v -2.53687 c 0,-1.34449 0.3734,-2.47228 1.1181,-3.3815 0.7448,-0.91889 1.7799,-1.64419 3.105,-2.17618 v -0.34867 c -1.3251,-0.53199 -2.3602,-1.25193 -3.105,-2.16115 -0.7447,-0.9189 -1.1181,-2.05204 -1.1181,-3.39653 v -2.53687 c 0,-1.35416 -0.299,-2.33629 -0.8987,-2.94566 -0.5901,-0.60938 -1.5431,-0.91376 -2.8585,-0.91376 h -1.6532 z"
         style="fill:#f3f3f3;fill-opacity:1;stroke-width:4.47675;stroke-linecap:round;stroke-linejoin:round;paint-order:markers fill stroke"
         id="path13" />
    </g>
  </g>
</svg>
