<?xml version="1.0" encoding="UTF-8" standalone="no"?>
<!-- Created with Inkscape (http://www.inkscape.org/) -->

<svg
   width="7.752111cm"
   height="7.7518716cm"
   viewBox="0 0 77.52111 77.518716"
   version="1.1"
   id="svg1"
   xml:space="preserve"
   sodipodi:docname="share icon.svg"
   inkscape:version="1.4.2 (f4327f4, 2025-05-13)"
   xmlns:inkscape="http://www.inkscape.org/namespaces/inkscape"
   xmlns:sodipodi="http://sodipodi.sourceforge.net/DTD/sodipodi-0.dtd"
   xmlns:xlink="http://www.w3.org/1999/xlink"
   xmlns="http://www.w3.org/2000/svg"
   xmlns:svg="http://www.w3.org/2000/svg"><sodipodi:namedview
     id="namedview1"
     pagecolor="#505050"
     bordercolor="#eeeeee"
     borderopacity="1"
     inkscape:showpageshadow="0"
     inkscape:pageopacity="0"
     inkscape:pagecheckerboard="0"
     inkscape:deskcolor="#505050"
     inkscape:document-units="cm"
     inkscape:zoom="0.93280403"
     inkscape:cx="-127.57235"
     inkscape:cy="235.31202"
     inkscape:window-width="1920"
     inkscape:window-height="991"
     inkscape:window-x="-9"
     inkscape:window-y="-9"
     inkscape:window-maximized="1"
     inkscape:current-layer="layer1" /><defs
     id="defs1"><linearGradient
       id="linearGradient128"><stop
         style="stop-color:#540ea3;stop-opacity:1;"
         offset="0"
         id="stop127" /><stop
         style="stop-color:#0c0614;stop-opacity:1;"
         offset="1"
         id="stop128" /></linearGradient><linearGradient
       id="linearGradient126"><stop
         style="stop-color:#9443ee;stop-opacity:1;"
         offset="0"
         id="stop125" /><stop
         style="stop-color:#3a1d61;stop-opacity:1;"
         offset="1"
         id="stop126" /></linearGradient><linearGradient
       id="linearGradient124"><stop
         style="stop-color:#9443ee;stop-opacity:1;"
         offset="0.25155279"
         id="stop123" /><stop
         style="stop-color:#6c33af;stop-opacity:0;"
         offset="1"
         id="stop124" /></linearGradient><color-profile
       name="sRGB-IEC61966-2.1"
       xlink:href="file:///C:/WINDOWS/system32/spool/drivers/color/sRGB%20Color%20Space%20Profile.icm"
       id="color-profile2" /><rect
       x="-5693.75"
       y="3456.25"
       width="1037.5"
       height="881.25"
       id="rect36" /><rect
       x="-5918.75"
       y="2131.25"
       width="1050"
       height="743.75"
       id="rect35" /><rect
       x="-5837.5"
       y="2531.25"
       width="1050"
       height="1206.25"
       id="rect33" /><rect
       x="-7353.9106"
       y="1997.5767"
       width="1102.2655"
       height="487.14508"
       id="rect31" /><rect
       x="-7406.9434"
       y="1599.8291"
       width="3477.8845"
       height="274.89221"
       id="rect30" /><rect
       x="-15150"
       y="-4393.75"
       width="1943.75"
       height="1231.25"
       id="rect195" /><rect
       x="-15062.5"
       y="-2825"
       width="2543.75"
       height="681.25"
       id="rect196" /><linearGradient
       xlink:href="#linearGradient124"
       id="linearGradient196"
       gradientUnits="userSpaceOnUse"
       x1="-1849.5928"
       y1="-4810.0059"
       x2="-1849.5928"
       y2="-2825.6296" /><radialGradient
       xlink:href="#linearGradient126"
       id="radialGradient196"
       gradientUnits="userSpaceOnUse"
       gradientTransform="matrix(1.5555375,1.1050529,-0.99009452,1.3937154,-2933.7713,4380.392)"
       cx="-2441.8174"
       cy="-4333.2148"
       fx="-2441.8174"
       fy="-4333.2148"
       r="437.08853" /><radialGradient
       xlink:href="#linearGradient126"
       id="radialGradient197"
       gradientUnits="userSpaceOnUse"
       gradientTransform="matrix(1.2403964,0.34585743,-0.42400046,1.5206515,-1247.7869,3057.54)"
       cx="-2391.7979"
       cy="-4289.9072"
       fx="-2391.7979"
       fy="-4289.9072"
       r="399.07413" /><radialGradient
       xlink:href="#linearGradient126"
       id="radialGradient198"
       gradientUnits="userSpaceOnUse"
       gradientTransform="matrix(1.1762751,8.1578772e-5,-1.1110759e-4,1.6022777,425.98455,2612.176)"
       cx="-2419.3374"
       cy="-4357.7935"
       fx="-2419.3374"
       fy="-4357.7935"
       r="344.97653" /><radialGradient
       xlink:href="#linearGradient128"
       id="radialGradient199"
       gradientUnits="userSpaceOnUse"
       gradientTransform="matrix(2.0112474,0.13875728,-0.13613245,1.9732019,1881.9225,4616.4793)"
       cx="-2452.7009"
       cy="-4398.1787"
       fx="-2452.7009"
       fy="-4398.1787"
       r="295.57394" /><style
       id="style1">.a{fill:#157cff;}.b{fill:#3a52dd;}.c{fill:#3c54df;}</style></defs><g
     id="layer1"
     transform="translate(1458.1384,-560.1996)"><path
       d="m -1387.863,722.07564 c -3.8666,0 -7.2893,1.8793 -9.427,4.76402 l -30.9333,-15.76262 c 0.2678,-0.98898 0.4252,-2.02024 0.4252,-3.09379 0,-1.3437 -0.2372,-2.62867 -0.6507,-3.82908 l 31.1071,-15.09546 c 2.1354,2.92231 5.5792,4.8298 9.4787,4.8298 6.4883,0 11.7457,-5.25969 11.7457,-11.74562 0,-6.48593 -5.2574,-11.74562 -11.7457,-11.74562 -6.4882,0 -11.7456,5.25969 -11.7456,11.74562 0,0.91146 0.1151,1.79473 0.3125,2.64746 l -31.5535,15.31159 c -2.1494,-2.37027 -5.2409,-3.86666 -8.6917,-3.86666 -6.486,0 -11.7457,5.25969 -11.7457,11.74562 0,6.48593 5.2597,11.74561 11.7457,11.74561 3.7351,0 7.0567,-1.74774 9.2085,-4.46803 l 31.0601,15.83074 c -0.2114,0.87858 -0.3335,1.79004 -0.3335,2.73204 0,6.48593 5.2573,11.74561 11.7456,11.74561 6.4883,0 11.7456,-5.25968 11.7456,-11.74561 0,-6.48593 -5.2573,-11.74562 -11.7456,-11.74562 z m 0,-46.98247 c 3.8925,0 7.0474,3.15487 7.0474,7.04737 0,3.8925 -3.1549,7.04737 -7.0474,7.04737 -3.8925,0 -7.0473,-3.15487 -7.0473,-7.04737 0,-3.8925 3.1548,-7.04737 7.0473,-7.04737 z m -51.6807,39.9351 c -3.8925,0 -7.0474,-3.15488 -7.0474,-7.04737 0,-3.8925 3.1549,-7.04737 7.0474,-7.04737 3.8925,0 7.0474,3.15722 7.0474,7.04737 0,3.89015 -3.1549,7.04737 -7.0474,7.04737 z m 51.6807,25.84036 c -3.8925,0 -7.0473,-3.15488 -7.0473,-7.04737 0,-3.8925 3.1548,-7.04738 7.0473,-7.04738 3.8925,0 7.0474,3.15488 7.0474,7.04738 0,3.89249 -3.1549,7.04737 -7.0474,7.04737 z"
       id="path1"
       style="fill:#6c33af;fill-opacity:1;stroke:#6c33af;stroke-width:2.34912;stroke-opacity:1"
       transform="translate(-5.6768645,-109.02309)" /></g></svg>
