<?xml version="1.0" encoding="UTF-8" standalone="no"?>
<!-- Created with Inkscape (http://www.inkscape.org/) -->

<svg
   width="7.9321256cm"
   height="8.5251961cm"
   viewBox="0 0 79.321255 85.25196"
   version="1.1"
   id="svg1"
   xml:space="preserve"
   sodipodi:docname="sync icon.svg"
   inkscape:version="1.4.2 (f4327f4, 2025-05-13)"
   xmlns:inkscape="http://www.inkscape.org/namespaces/inkscape"
   xmlns:sodipodi="http://sodipodi.sourceforge.net/DTD/sodipodi-0.dtd"
   xmlns:xlink="http://www.w3.org/1999/xlink"
   xmlns="http://www.w3.org/2000/svg"
   xmlns:svg="http://www.w3.org/2000/svg"><sodipodi:namedview
     id="namedview1"
     pagecolor="#505050"
     bordercolor="#eeeeee"
     borderopacity="1"
     inkscape:showpageshadow="0"
     inkscape:pageopacity="0"
     inkscape:pagecheckerboard="0"
     inkscape:deskcolor="#505050"
     inkscape:document-units="cm"
     inkscape:zoom="0.84818895"
     inkscape:cx="90.781659"
     inkscape:cy="176.2579"
     inkscape:window-width="1920"
     inkscape:window-height="991"
     inkscape:window-x="-9"
     inkscape:window-y="-9"
     inkscape:window-maximized="1"
     inkscape:current-layer="layer1" /><defs
     id="defs1"><linearGradient
       id="linearGradient128"><stop
         style="stop-color:#540ea3;stop-opacity:1;"
         offset="0"
         id="stop127" /><stop
         style="stop-color:#0c0614;stop-opacity:1;"
         offset="1"
         id="stop128" /></linearGradient><linearGradient
       id="linearGradient126"><stop
         style="stop-color:#9443ee;stop-opacity:1;"
         offset="0"
         id="stop125" /><stop
         style="stop-color:#3a1d61;stop-opacity:1;"
         offset="1"
         id="stop126" /></linearGradient><linearGradient
       id="linearGradient124"><stop
         style="stop-color:#9443ee;stop-opacity:1;"
         offset="0.25155279"
         id="stop123" /><stop
         style="stop-color:#6c33af;stop-opacity:0;"
         offset="1"
         id="stop124" /></linearGradient><color-profile
       name="sRGB-IEC61966-2.1"
       xlink:href="file:///C:/WINDOWS/system32/spool/drivers/color/sRGB%20Color%20Space%20Profile.icm"
       id="color-profile2" /><rect
       x="-5693.75"
       y="3456.25"
       width="1037.5"
       height="881.25"
       id="rect36" /><rect
       x="-5918.75"
       y="2131.25"
       width="1050"
       height="743.75"
       id="rect35" /><rect
       x="-5837.5"
       y="2531.25"
       width="1050"
       height="1206.25"
       id="rect33" /><rect
       x="-7353.9106"
       y="1997.5767"
       width="1102.2655"
       height="487.14508"
       id="rect31" /><rect
       x="-7406.9434"
       y="1599.8291"
       width="3477.8845"
       height="274.89221"
       id="rect30" /><rect
       x="-15150"
       y="-4393.75"
       width="1943.75"
       height="1231.25"
       id="rect195" /><rect
       x="-15062.5"
       y="-2825"
       width="2543.75"
       height="681.25"
       id="rect196" /><linearGradient
       xlink:href="#linearGradient124"
       id="linearGradient196"
       gradientUnits="userSpaceOnUse"
       x1="-1849.5928"
       y1="-4810.0059"
       x2="-1849.5928"
       y2="-2825.6296" /><radialGradient
       xlink:href="#linearGradient126"
       id="radialGradient196"
       gradientUnits="userSpaceOnUse"
       gradientTransform="matrix(1.5555375,1.1050529,-0.99009452,1.3937154,-2933.7713,4380.392)"
       cx="-2441.8174"
       cy="-4333.2148"
       fx="-2441.8174"
       fy="-4333.2148"
       r="437.08853" /><radialGradient
       xlink:href="#linearGradient126"
       id="radialGradient197"
       gradientUnits="userSpaceOnUse"
       gradientTransform="matrix(1.2403964,0.34585743,-0.42400046,1.5206515,-1247.7869,3057.54)"
       cx="-2391.7979"
       cy="-4289.9072"
       fx="-2391.7979"
       fy="-4289.9072"
       r="399.07413" /><radialGradient
       xlink:href="#linearGradient126"
       id="radialGradient198"
       gradientUnits="userSpaceOnUse"
       gradientTransform="matrix(1.1762751,8.1578772e-5,-1.1110759e-4,1.6022777,425.98455,2612.176)"
       cx="-2419.3374"
       cy="-4357.7935"
       fx="-2419.3374"
       fy="-4357.7935"
       r="344.97653" /><radialGradient
       xlink:href="#linearGradient128"
       id="radialGradient199"
       gradientUnits="userSpaceOnUse"
       gradientTransform="matrix(2.0112474,0.13875728,-0.13613245,1.9732019,1881.9225,4616.4793)"
       cx="-2452.7009"
       cy="-4398.1787"
       fx="-2452.7009"
       fy="-4398.1787"
       r="295.57394" /><style
       id="style1">.a{fill:#157cff;}.b{fill:#3a52dd;}.c{fill:#3c54df;}</style></defs><g
     id="layer1"
     transform="translate(664.34165,-543.13701)"><g
       style="fill:#6c33af;fill-opacity:1"
       id="g39"
       transform="matrix(5.5001292,0,0,5.5001292,-690.62909,519.76142)"><path
         d="M 18.43,4.25 C 18.2319,4.25259 18.0426,4.33244 17.9025,4.47253 17.7625,4.61263 17.6826,4.80189 17.68,5 V 7.43 L 16.84,6.59 C 15.971,5.71363 14.8924,5.07396 13.7067,4.73172 12.5209,4.38948 11.2673,4.35604 10.065,4.63458 8.86267,4.91312 7.7515,5.49439 6.83703,6.32318 5.92255,7.15198 5.23512,8.20078 4.84001,9.37 4.79887,9.46531 4.77824,9.56821 4.77947,9.67202 4.7807,9.77583 4.80375,9.87821 4.84714,9.97252 4.89052,10.0668 4.95326,10.151 5.03129,10.2194 c 0.07802,0.0685 0.16958,0.1198 0.26872,0.1506 0.08272,0.0144 0.16729,0.0144 0.25,0 0.15645,-0.0016 0.3086,-0.0514 0.43567,-0.1427 C 6.11275,10.136 6.20856,10.0078 6.26001,9.86 6.53938,9.0301 7.00847,8.27681 7.63001,7.66 8.70957,6.58464 10.1713,5.98085 11.695,5.98085 c 1.5238,0 2.9855,0.60379 4.065,1.67915 L 16.6,8.5 H 14.19 C 13.9911,8.5 13.8003,8.57902 13.6597,8.71967 13.519,8.86032 13.44,9.05109 13.44,9.25 c 0,0.19891 0.079,0.38968 0.2197,0.53033 C 13.8003,9.92098 13.9911,10 14.19,10 h 4.24 C 18.5289,10.0013 18.627,9.98286 18.7186,9.94565 18.8102,9.90844 18.8934,9.85324 18.9633,9.78333 19.0333,9.71341 19.0885,9.6302 19.1257,9.5386 19.1629,9.44699 19.1814,9.34886 19.18,9.25 V 5 C 19.18,4.80109 19.101,4.61032 18.9603,4.46967 18.8197,4.32902 18.6289,4.25 18.43,4.25 Z"
         fill="#000000"
         id="path1-5"
         style="fill:#6c33af;fill-opacity:1" /><path
         d="m 18.68,13.68 c -0.0963,-0.0378 -0.1992,-0.0556 -0.3026,-0.0523 -0.1034,0.0034 -0.205,0.0278 -0.2987,0.0718 -0.0936,0.044 -0.1772,0.1067 -0.2458,0.1841 -0.0686,0.0775 -0.1206,0.1681 -0.1529,0.2664 -0.2794,0.8299 -0.7484,1.5832 -1.37,2.2 -1.0795,1.0754 -2.5412,1.6791 -4.065,1.6791 -1.5237,0 -2.98543,-0.6037 -4.06499,-1.6791 l -0.84,-0.84 h 2.47001 c 0.19888,0 0.38968,-0.079 0.53028,-0.2197 C 10.481,15.1497 10.56,14.9589 10.56,14.76 10.56,14.5611 10.481,14.3703 10.3403,14.2297 10.1997,14.089 10.0089,14.01 9.81002,14.01 H 5.57001 C 5.47115,14.0086 5.37302,14.0271 5.28142,14.0643 5.18982,14.1016 5.1066,14.1568 5.03669,14.2267 4.96677,14.2966 4.91158,14.3798 4.87436,14.4714 4.83715,14.563 4.81867,14.6611 4.82001,14.76 V 19 c 0,0.1989 0.07902,0.3897 0.21967,0.5303 0.14066,0.1407 0.33142,0.2197 0.53033,0.2197 0.19892,0 0.38968,-0.079 0.53033,-0.2197 C 6.241,19.3897 6.32001,19.1989 6.32001,19 v -2.43 l 0.84,0.84 c 0.869,0.8764 1.9476,1.516 3.13339,1.8583 1.1857,0.3422 2.4393,0.3756 3.6416,0.0971 1.2024,-0.2785 2.3135,-0.8598 3.228,-1.6886 0.9145,-0.8288 1.6019,-1.8776 1.997,-3.0468 0.0326,-0.0938 0.0461,-0.1932 0.0395,-0.2923 -0.0066,-0.0991 -0.0331,-0.1959 -0.0779,-0.2845 -0.0448,-0.0887 -0.107,-0.1674 -0.1829,-0.2315 C 18.8629,13.7576 18.7749,13.7094 18.68,13.68 Z"
         fill="#000000"
         id="path2"
         style="fill:#6c33af;fill-opacity:1" /></g></g></svg>
