<?xml version="1.0" encoding="UTF-8" standalone="no"?>
<!-- Created with Inkscape (http://www.inkscape.org/) -->

<svg
   width="6.5892167cm"
   height="6.5550518cm"
   viewBox="0 0 65.892167 65.550518"
   version="1.1"
   id="svg1"
   xml:space="preserve"
   sodipodi:docname="vs icon.svg"
   inkscape:version="1.4.2 (f4327f4, 2025-05-13)"
   xmlns:inkscape="http://www.inkscape.org/namespaces/inkscape"
   xmlns:sodipodi="http://sodipodi.sourceforge.net/DTD/sodipodi-0.dtd"
   xmlns:xlink="http://www.w3.org/1999/xlink"
   xmlns="http://www.w3.org/2000/svg"
   xmlns:svg="http://www.w3.org/2000/svg"><sodipodi:namedview
     id="namedview1"
     pagecolor="#505050"
     bordercolor="#eeeeee"
     borderopacity="1"
     inkscape:showpageshadow="0"
     inkscape:pageopacity="0"
     inkscape:pagecheckerboard="0"
     inkscape:deskcolor="#505050"
     inkscape:document-units="cm"
     inkscape:zoom="3.1200809"
     inkscape:cx="124.67626"
     inkscape:cy="123.87499"
     inkscape:window-width="1920"
     inkscape:window-height="991"
     inkscape:window-x="-9"
     inkscape:window-y="-9"
     inkscape:window-maximized="1"
     inkscape:current-layer="layer1" /><defs
     id="defs1"><color-profile
       name="sRGB-IEC61966-2.1"
       xlink:href="file:///C:/WINDOWS/system32/spool/drivers/color/sRGB%20Color%20Space%20Profile.icm"
       id="color-profile2" /><rect
       x="-7062.229"
       y="4224.9629"
       width="2934.4932"
       height="662.9126"
       id="rect43" /><rect
       x="-3685.7942"
       y="1537.9573"
       width="1608.6678"
       height="265.16504"
       id="rect41" /><style
       id="style1">.a{fill:#157cff;}.b{fill:#3a52dd;}.c{fill:#3c54df;}</style></defs><g
     id="layer1"
     transform="translate(939.33648,-1137.7606)"><g
       id="g41"
       transform="matrix(3.1215219,0,0,3.1215219,-970.21146,1106.545)"><path
         d="M 12.941,26.524 A 0.88,0.88 0 0 1 12.03,26.668 L 10.433,26 A 0.881,0.881 0 0 1 9.891,25.188 V 15.809 A 0.88,0.88 0 0 1 10.433,15 l 1.6,-0.665 a 0.879,0.879 0 0 1 0.911,0.144 l 0.358,0.307 a 0.486,0.486 0 0 0 -0.769,0.4 v 10.635 a 0.486,0.486 0 0 0 0.769,0.4 z"
         style="fill:#52218a"
         id="path2-3" /><path
         d="M 10.433,26 A 0.881,0.881 0 0 1 9.891,25.188 v -0.073 a 0.508,0.508 0 0 0 0.885,0.34 L 24.4,10.385 a 1.316,1.316 0 0 1 1.5,-0.255 l 4.35,2.095 A 1.319,1.319 0 0 1 31,13.413 v 0.051 A 0.833,0.833 0 0 0 29.639,12.82 L 13.3,26.217 12.942,26.524 a 0.88,0.88 0 0 1 -0.911,0.144 z"
         style="fill:#6c33af"
         id="path3-4" /><path
         d="m 10.433,15 a 0.881,0.881 0 0 0 -0.542,0.812 v 0.073 a 0.508,0.508 0 0 1 0.885,-0.34 L 24.4,30.614 a 1.314,1.314 0 0 0 1.5,0.255 l 4.35,-2.094 A 1.318,1.318 0 0 0 31,27.586 v -0.05 A 0.833,0.833 0 0 1 29.639,28.18 L 13.3,14.783 12.942,14.476 a 0.88,0.88 0 0 0 -0.911,-0.144 z"
         style="fill:#854cc7"
         id="path4-1" /><path
         d="m 25.9,30.87 a 1.317,1.317 0 0 1 -1.5,-0.255 0.773,0.773 0 0 0 1.32,-0.547 V 10.932 A 0.773,0.773 0 0 0 24.4,10.385 1.317,1.317 0 0 1 25.9,10.13 l 4.348,2.091 A 1.32,1.32 0 0 1 31,13.41 v 14.18 a 1.32,1.32 0 0 1 -0.748,1.189 z"
         style="fill:#b179f1"
         id="path5-1" /></g></g></svg>
