<?xml version="1.0" encoding="UTF-8" standalone="no"?>
<!-- Created with Inkscape (http://www.inkscape.org/) -->

<svg
   width="8.1955109cm"
   height="4.7811036cm"
   viewBox="0 0 81.955109 47.811036"
   version="1.1"
   id="svg1"
   xml:space="preserve"
   sodipodi:docname="windsurf icon.svg"
   inkscape:version="1.4.2 (f4327f4, 2025-05-13)"
   xmlns:inkscape="http://www.inkscape.org/namespaces/inkscape"
   xmlns:sodipodi="http://sodipodi.sourceforge.net/DTD/sodipodi-0.dtd"
   xmlns:xlink="http://www.w3.org/1999/xlink"
   xmlns="http://www.w3.org/2000/svg"
   xmlns:svg="http://www.w3.org/2000/svg"><sodipodi:namedview
     id="namedview1"
     pagecolor="#505050"
     bordercolor="#eeeeee"
     borderopacity="1"
     inkscape:showpageshadow="0"
     inkscape:pageopacity="0"
     inkscape:pagecheckerboard="0"
     inkscape:deskcolor="#505050"
     inkscape:document-units="cm"
     inkscape:zoom="1.0694336"
     inkscape:cx="-82.286547"
     inkscape:cy="165.97571"
     inkscape:window-width="1920"
     inkscape:window-height="991"
     inkscape:window-x="-9"
     inkscape:window-y="-9"
     inkscape:window-maximized="1"
     inkscape:current-layer="g46" /><defs
     id="defs1"><color-profile
       name="sRGB-IEC61966-2.1"
       xlink:href="file:///C:/WINDOWS/system32/spool/drivers/color/sRGB%20Color%20Space%20Profile.icm"
       id="color-profile2" /><rect
       x="-7062.229"
       y="4224.9629"
       width="2934.4932"
       height="662.9126"
       id="rect43" /><rect
       x="-3685.7942"
       y="1537.9573"
       width="1608.6678"
       height="265.16504"
       id="rect41" /><style
       id="style1">.a{fill:#157cff;}.b{fill:#3a52dd;}.c{fill:#3c54df;}</style></defs><g
     id="layer1"
     transform="translate(620.23265,-1150.1797)"><g
       id="g43"><g
         id="g46"
         transform="matrix(0.63385189,0,0,0.63385189,-0.50985383,341.27389)"><g
           style="line-height:1;fill:#6c33af;fill-opacity:1;fill-rule:evenodd"
           id="g45"
           transform="matrix(5.3873728,0,0,5.3873728,-977.70924,1249.2378)"><path
             clip-rule="evenodd"
             d="M 23.78,5.004 H 23.552 A 2.187,2.187 0 0 0 21.372,7.2 v 4.912 c 0,0.98 -0.804,1.775 -1.76,1.775 A 1.818,1.818 0 0 1 18.14,13.114 L 13.168,5.95 A 2.197,2.197 0 0 0 11.358,5 C 10.224,5 9.204,5.972 9.204,7.173 v 4.94 c 0,0.98 -0.797,1.775 -1.76,1.775 -0.57,0 -1.136,-0.289 -1.472,-0.773 L 0.408,5.098 C 0.282,4.918 0,5.007 0,5.228 v 4.284 c 0,0.216 0.066,0.426 0.188,0.604 l 5.475,7.889 c 0.324,0.466 0.8,0.812 1.351,0.938 1.377,0.316 2.645,-0.754 2.645,-2.117 V 11.89 c 0,-0.98 0.787,-1.775 1.76,-1.775 h 0.002 c 0.586,0 1.135,0.288 1.472,0.773 l 4.972,7.163 a 2.15,2.15 0 0 0 1.81,0.95 c 1.158,0 2.151,-0.973 2.151,-2.173 v -4.939 c 0,-0.98 0.787,-1.775 1.76,-1.775 h 0.194 c 0.122,0 0.22,-0.1 0.22,-0.222 V 5.225 A 0.221,0.221 0 0 0 23.78,5.003 Z"
             id="path1-7"
             style="fill:#6c33af;fill-opacity:1" /></g></g></g></g></svg>
